<svg width="38" height="39" viewBox="0 0 38 39" fill="none" xmlns="http://www.w3.org/2000/svg">
<rect x="0.5" y="0.900879" width="37" height="37" rx="18.5" stroke="white"/>
<path d="M23.125 15.2759H23.1325M15.25 11.9009H22.75C24.8211 11.9009 26.5 13.5798 26.5 15.6509V23.1509C26.5 25.2219 24.8211 26.9009 22.75 26.9009H15.25C13.1789 26.9009 11.5 25.2219 11.5 23.1509V15.6509C11.5 13.5798 13.1789 11.9009 15.25 11.9009ZM22 18.9284C22.0926 19.5526 21.9859 20.19 21.6953 20.7501C21.4047 21.3102 20.9449 21.7644 20.3812 22.0481C19.8176 22.3318 19.1788 22.4306 18.5558 22.3303C17.9328 22.2301 17.3573 21.9359 16.9111 21.4897C16.4649 21.0436 16.1708 20.468 16.0706 19.845C15.9703 19.222 16.069 18.5833 16.3527 18.0197C16.6364 17.456 17.0906 16.9962 17.6507 16.7056C18.2108 16.4149 18.8483 16.3083 19.4725 16.4009C20.1092 16.4953 20.6986 16.792 21.1538 17.2471C21.6089 17.7022 21.9056 18.2917 22 18.9284Z" stroke="white" stroke-linecap="round" stroke-linejoin="round"/>
</svg>
