<svg width="68" height="68" viewBox="0 0 68 68" fill="none" xmlns="http://www.w3.org/2000/svg">
<rect width="68" height="68" rx="34" fill="#F4F4F4"/>
<path d="M31.9995 50C28.4876 50.0106 25.1 48.701 22.5085 46.3308C19.917 43.9607 18.311 40.7031 18.0089 37.2042C17.7069 33.7053 18.7309 30.2207 20.8778 27.4415C23.0247 24.6622 26.1377 22.7914 29.5995 22.2C40.9995 20 43.9995 18.96 47.9995 14C49.9995 18 51.9995 22.36 51.9995 30C51.9995 41 42.4395 50 31.9995 50Z" stroke="#CE9F41" stroke-width="2" stroke-linecap="round" stroke-linejoin="round"/>
<path d="M14 52C14 46 17.7 41.28 24.16 40C29 39.04 34 36 36 34" stroke="#CE9F41" stroke-width="2" stroke-linecap="round" stroke-linejoin="round"/>
</svg>
