<svg width="68" height="68" viewBox="0 0 68 68" fill="none" xmlns="http://www.w3.org/2000/svg">
<rect width="68" height="68" rx="34" fill="#F4F4F4"/>
<path d="M19.858 42.7571C16.238 43.8431 14 45.3431 14 47.0001C14 50.3141 22.954 53.0001 34 53.0001C45.046 53.0001 54 50.3141 54 47.0001C54 45.3431 51.761 43.8431 48.142 42.7571" stroke="#CE9F41" stroke-width="2" stroke-linecap="round" stroke-linejoin="round"/>
<path d="M34 45C34 45 47 36.504 47 26.682C47 19.678 41.18 14 34 14C26.82 14 21 19.678 21 26.682C21 36.504 34 45 34 45Z" stroke="#CE9F41" stroke-width="2" stroke-linejoin="round"/>
<path d="M34 32C35.3261 32 36.5979 31.4732 37.5355 30.5355C38.4732 29.5979 39 28.3261 39 27C39 25.6739 38.4732 24.4021 37.5355 23.4645C36.5979 22.5268 35.3261 22 34 22C32.6739 22 31.4021 22.5268 30.4645 23.4645C29.5268 24.4021 29 25.6739 29 27C29 28.3261 29.5268 29.5979 30.4645 30.5355C31.4021 31.4732 32.6739 32 34 32Z" stroke="#CE9F41" stroke-width="2" stroke-linejoin="round"/>
</svg>
