<svg width="68" height="68" viewBox="0 0 68 68" fill="none" xmlns="http://www.w3.org/2000/svg">
<rect width="68" height="68" rx="34" fill="#F4F4F4"/>
<path d="M49.1222 34.1979L52.1862 39.4999C52.8007 40.5643 53.1241 41.7718 53.124 43.0008C53.1238 44.2299 52.8 45.4373 52.1852 46.5015C51.5704 47.5658 50.6862 48.4494 49.6215 49.0635C48.5568 49.6776 47.3492 50.0006 46.1202 49.9999H42.0002V53.9999L32.0002 46.9999L42.0002 39.9999V43.9999H46.1242C46.2844 43.9999 46.4423 43.9614 46.5845 43.8877C46.7268 43.8139 46.8492 43.7071 46.9416 43.5761C47.0339 43.4452 47.0934 43.294 47.1151 43.1352C47.1368 42.9764 47.12 42.8148 47.0662 42.6639L46.9902 42.4999L43.9302 37.1959L49.1222 34.1979ZM25.4722 28.7679L26.5342 40.9279L23.0722 38.9279L21.0082 42.4999C20.928 42.6386 20.8823 42.7946 20.875 42.9547C20.8678 43.1148 20.8991 43.2743 20.9663 43.4198C21.0335 43.5653 21.1348 43.6924 21.2614 43.7906C21.3881 43.8888 21.5365 43.9551 21.6942 43.9839L21.8742 43.9999H28.0002V49.9999H21.8742C20.6454 49.9999 19.4383 49.6764 18.3742 49.062C17.3101 48.4476 16.4265 47.5639 15.8121 46.4998C15.1978 45.4357 14.8743 44.2286 14.8743 42.9998C14.8743 41.7711 15.1978 40.564 15.8122 39.4999L17.8762 35.9279L14.4102 33.9279L25.4722 28.7679ZM37.5002 15.9399C38.5632 16.554 39.4461 17.4368 40.0602 18.4999L42.1222 22.0719L45.5882 20.0719L44.5242 32.2319L33.4642 27.0719L36.9242 25.0719L34.8642 21.4999C34.7841 21.3611 34.6718 21.2436 34.5368 21.1572C34.4019 21.0709 34.2481 21.0183 34.0885 21.0038C33.929 20.9893 33.7682 21.0133 33.6199 21.0739C33.4716 21.1345 33.34 21.2298 33.2362 21.3519L33.1322 21.4999L30.0722 26.8039L24.8762 23.8039L27.9362 18.4999C28.396 17.7037 29.0081 17.006 29.7376 16.4464C30.4671 15.8869 31.2997 15.4765 32.1879 15.2388C33.076 15.0011 34.0023 14.9406 34.9138 15.0609C35.8252 15.1812 36.7041 15.4799 37.5002 15.9399Z" fill="#CE9F41"/>
</svg>
