<svg width="36" height="37" viewBox="0 0 36 37" fill="none" xmlns="http://www.w3.org/2000/svg">
<path d="M18 4.15088C12.285 4.15088 8.25 8.26538 8.25 13.3294C8.25 15.6334 9.198 17.1874 10.3875 18.6694C10.6455 18.9919 10.908 19.3024 11.178 19.6219L11.322 19.7899C11.637 20.1649 11.9625 20.5519 12.267 20.9509C12.873 21.7474 13.4415 22.6429 13.7595 23.7019C13.8374 23.9851 13.8014 24.2875 13.6593 24.5446C13.5172 24.8016 13.2801 24.9929 12.9989 25.0775C12.7176 25.1621 12.4144 25.1334 12.154 24.9974C11.8937 24.8614 11.6968 24.629 11.6055 24.3499C11.3985 23.6599 11.01 23.0149 10.476 22.3144C10.1942 21.95 9.90309 21.5929 9.603 21.2434L9.465 21.0784C9.195 20.7604 8.91 20.4244 8.6325 20.0779C7.305 18.4249 6 16.3774 6 13.3279C6 6.94538 11.1225 1.90088 18 1.90088C24.8775 1.90088 30 6.94388 30 13.3294C30 16.3774 28.695 18.4249 27.3675 20.0794C27.09 20.4244 26.805 20.7604 26.535 21.0799L26.397 21.2434C26.082 21.6154 25.7895 21.9649 25.524 22.3144C24.99 23.0149 24.6015 23.6614 24.3945 24.3499C24.2988 24.6238 24.101 24.8502 23.8425 24.9819C23.584 25.1136 23.2846 25.1405 23.0068 25.057C22.7289 24.9734 22.494 24.7859 22.351 24.5335C22.2079 24.281 22.1678 23.9832 22.239 23.7019C22.5585 22.6429 23.127 21.7474 23.7345 20.9509C24.0375 20.5519 24.363 20.1649 24.6795 19.7899L24.822 19.6219C25.092 19.3024 25.3545 18.9919 25.6125 18.6709C26.802 17.1859 27.75 15.6334 27.75 13.3294C27.75 8.26538 23.715 4.15088 18 4.15088ZM13.125 27.4009H22.875C23.1734 27.4009 23.4595 27.5194 23.6705 27.7304C23.8815 27.9414 24 28.2275 24 28.5259C24 28.8242 23.8815 29.1104 23.6705 29.3214C23.4595 29.5324 23.1734 29.6509 22.875 29.6509H13.125C12.8266 29.6509 12.5405 29.5324 12.3295 29.3214C12.1185 29.1104 12 28.8242 12 28.5259C12 28.2275 12.1185 27.9414 12.3295 27.7304C12.5405 27.5194 12.8266 27.4009 13.125 27.4009ZM14.25 33.0259C14.25 32.7275 14.3685 32.4414 14.5795 32.2304C14.7905 32.0194 15.0766 31.9009 15.375 31.9009H20.625C20.9234 31.9009 21.2095 32.0194 21.4205 32.2304C21.6315 32.4414 21.75 32.7275 21.75 33.0259C21.75 33.3242 21.6315 33.6104 21.4205 33.8214C21.2095 34.0324 20.9234 34.1509 20.625 34.1509H15.375C15.0766 34.1509 14.7905 34.0324 14.5795 33.8214C14.3685 33.6104 14.25 33.3242 14.25 33.0259Z" fill="#E8D5A0"/>
</svg>
